<?xml version="1.0" encoding="UTF-8"?>
<svg width="1200" height="980" viewBox="0 0 1200 980" fill="none" xmlns="http://www.w3.org/2000/svg" role="img" aria-labelledby="title desc">
  <title id="title">voyage-craft live GitHub dashboard</title>
  <desc id="desc">Repository, language and activity dashboard generated from GitHub data.</desc>
  <defs>
    <linearGradient id="bg" x1="0" y1="0" x2="1200" y2="980" gradientUnits="userSpaceOnUse"><stop stop-color="#020617"/><stop offset="0.5" stop-color="#111827"/><stop offset="1" stop-color="#164E63"/></linearGradient>
    <radialGradient id="glowA" cx="0" cy="0" r="1" gradientUnits="userSpaceOnUse" gradientTransform="translate(210 120) rotate(48) scale(560 300)"><stop stop-color="#22D3EE" stop-opacity="0.42"/><stop offset="1" stop-color="#22D3EE" stop-opacity="0"/></radialGradient>
    <radialGradient id="glowB" cx="0" cy="0" r="1" gradientUnits="userSpaceOnUse" gradientTransform="translate(1040 720) rotate(155) scale(620 360)"><stop stop-color="#EC4899" stop-opacity="0.35"/><stop offset="1" stop-color="#EC4899" stop-opacity="0"/></radialGradient>
    <filter id="shadow" x="-20%" y="-20%" width="140%" height="140%"><feDropShadow dx="0" dy="18" stdDeviation="22" flood-color="#000" flood-opacity="0.42"/></filter>
  </defs>
  <rect width="1200" height="980" rx="34" fill="url(#bg)"/>
  <rect width="1200" height="980" rx="34" fill="url(#glowA)"/>
  <rect width="1200" height="980" rx="34" fill="url(#glowB)"/>
  <g opacity="0.12"><path d="M0 0V980" stroke="#E5E7EB"/><path d="M120 0V980" stroke="#E5E7EB"/><path d="M240 0V980" stroke="#E5E7EB"/><path d="M360 0V980" stroke="#E5E7EB"/><path d="M480 0V980" stroke="#E5E7EB"/><path d="M600 0V980" stroke="#E5E7EB"/><path d="M720 0V980" stroke="#E5E7EB"/><path d="M840 0V980" stroke="#E5E7EB"/><path d="M960 0V980" stroke="#E5E7EB"/><path d="M1080 0V980" stroke="#E5E7EB"/><path d="M1200 0V980" stroke="#E5E7EB"/><path d="M0 0H1200" stroke="#E5E7EB"/><path d="M0 98H1200" stroke="#E5E7EB"/><path d="M0 196H1200" stroke="#E5E7EB"/><path d="M0 294H1200" stroke="#E5E7EB"/><path d="M0 392H1200" stroke="#E5E7EB"/><path d="M0 490H1200" stroke="#E5E7EB"/><path d="M0 588H1200" stroke="#E5E7EB"/><path d="M0 686H1200" stroke="#E5E7EB"/><path d="M0 784H1200" stroke="#E5E7EB"/><path d="M0 882H1200" stroke="#E5E7EB"/><path d="M0 980H1200" stroke="#E5E7EB"/></g>
  <text x="64" y="86" fill="#F8FAFC" font-family="Segoe UI, Inter, Arial, sans-serif" font-size="38" font-weight="800">voyage-craft live dashboard</text>
  <text x="64" y="126" fill="#A5F3FC" font-family="Segoe UI, Inter, Arial, sans-serif" font-size="20" font-weight="650">auto synced · 2026-04-18 14:28 UTC · unified local SVG surface</text>
  <g filter="url(#shadow)"><rect x="64" y="170" width="246" height="92" rx="22" fill="#020617" fill-opacity="0.62" stroke="#22D3EE" stroke-opacity="0.42"/><text x="88" y="212" fill="#22D3EE" font-family="Segoe UI, Inter, Arial, sans-serif" font-size="17" font-weight="800" letter-spacing="1.5">REPOSITORIES</text><text x="88" y="246" fill="#F8FAFC" font-family="Segoe UI, Inter, Arial, sans-serif" font-size="34" font-weight="800">1</text></g><g filter="url(#shadow)"><rect x="342" y="170" width="246" height="92" rx="22" fill="#020617" fill-opacity="0.62" stroke="#EC4899" stroke-opacity="0.42"/><text x="366" y="212" fill="#EC4899" font-family="Segoe UI, Inter, Arial, sans-serif" font-size="17" font-weight="800" letter-spacing="1.5">STARS</text><text x="366" y="246" fill="#F8FAFC" font-family="Segoe UI, Inter, Arial, sans-serif" font-size="34" font-weight="800">0</text></g><g filter="url(#shadow)"><rect x="620" y="170" width="246" height="92" rx="22" fill="#020617" fill-opacity="0.62" stroke="#8B5CF6" stroke-opacity="0.42"/><text x="644" y="212" fill="#8B5CF6" font-family="Segoe UI, Inter, Arial, sans-serif" font-size="17" font-weight="800" letter-spacing="1.5">FORKS</text><text x="644" y="246" fill="#F8FAFC" font-family="Segoe UI, Inter, Arial, sans-serif" font-size="34" font-weight="800">0</text></g><g filter="url(#shadow)"><rect x="898" y="170" width="246" height="92" rx="22" fill="#020617" fill-opacity="0.62" stroke="#22C55E" stroke-opacity="0.42"/><text x="922" y="212" fill="#22C55E" font-family="Segoe UI, Inter, Arial, sans-serif" font-size="17" font-weight="800" letter-spacing="1.5">FOLLOWERS</text><text x="922" y="246" fill="#F8FAFC" font-family="Segoe UI, Inter, Arial, sans-serif" font-size="34" font-weight="800">0</text></g>
  <text x="64" y="250" fill="#F8FAFC" font-family="Segoe UI, Inter, Arial, sans-serif" font-size="28" font-weight="800">language matrix</text><text x="64" y="292" fill="#CBD5E1" font-family="Segoe UI, Inter, Arial, sans-serif" font-size="18" font-weight="700">JavaScript</text><rect x="234" y="275" width="720" height="20" rx="10" fill="#0F172A"/><rect x="234" y="275" width="620" height="20" rx="10" fill="#22D3EE" fill-opacity="0.82"/><text x="974" y="292" fill="#F8FAFC" font-family="Segoe UI, Inter, Arial, sans-serif" font-size="16" font-weight="700">1 repos</text>
  <text x="64" y="502" fill="#F8FAFC" font-family="Segoe UI, Inter, Arial, sans-serif" font-size="28" font-weight="800">repository constellation</text>
  <g filter="url(#shadow)"><rect x="64" y="538" width="520" height="78" rx="18" fill="#020617" fill-opacity="0.62" stroke="#22D3EE" stroke-opacity="0.28"/><text x="86" y="569" fill="#F8FAFC" font-family="Segoe UI, Inter, Arial, sans-serif" font-size="20" font-weight="800">voyage-craft</text><text x="86" y="594" fill="#CBD5E1" font-family="Segoe UI, Inter, Arial, sans-serif" font-size="15">No description yet.</text><text x="442" y="569" fill="#FBCFE8" font-family="Segoe UI, Inter, Arial, sans-serif" font-size="14" font-weight="800">★ 0 · ⑂ 0</text></g>
  <text x="64" y="846" fill="#F8FAFC" font-family="Segoe UI, Inter, Arial, sans-serif" font-size="28" font-weight="800">recent signals</text>
  <text x="64" y="880" fill="#A5F3FC" font-family="Segoe UI, Inter, Arial, sans-serif" font-size="17" font-weight="700">voyage-craft</text><text x="424" y="880" fill="#CBD5E1" font-family="Segoe UI, Inter, Arial, sans-serif" font-size="16">JavaScript · 2026-04-18</text>
</svg>