<svg width="1200" height="420" viewBox="0 0 1200 420" fill="none" xmlns="http://www.w3.org/2000/svg" role="img" aria-labelledby="title desc">
  <title id="title">voyage-craft profile hero</title>
  <desc id="desc">Unified GitHub profile banner for voyage-craft</desc>
  <defs>
    <linearGradient id="bg" x1="0" y1="0" x2="1200" y2="420" gradientUnits="userSpaceOnUse">
      <stop stop-color="#020617"/>
      <stop offset="0.52" stop-color="#111827"/>
      <stop offset="1" stop-color="#0e7490"/>
    </linearGradient>
    <radialGradient id="glowA" cx="0" cy="0" r="1" gradientUnits="userSpaceOnUse" gradientTransform="translate(230 70) rotate(52) scale(520 240)">
      <stop stop-color="#22D3EE" stop-opacity="0.55"/>
      <stop offset="1" stop-color="#22D3EE" stop-opacity="0"/>
    </radialGradient>
    <radialGradient id="glowB" cx="0" cy="0" r="1" gradientUnits="userSpaceOnUse" gradientTransform="translate(1020 330) rotate(150) scale(520 280)">
      <stop stop-color="#EC4899" stop-opacity="0.45"/>
      <stop offset="1" stop-color="#EC4899" stop-opacity="0"/>
    </radialGradient>
    <linearGradient id="line" x1="160" y1="320" x2="1040" y2="320" gradientUnits="userSpaceOnUse">
      <stop stop-color="#22D3EE" stop-opacity="0"/>
      <stop offset="0.5" stop-color="#22D3EE"/>
      <stop offset="1" stop-color="#EC4899" stop-opacity="0"/>
    </linearGradient>
    <filter id="shadow" x="-20%" y="-20%" width="140%" height="140%">
      <feDropShadow dx="0" dy="22" stdDeviation="24" flood-color="#000000" flood-opacity="0.45"/>
    </filter>
  </defs>
  <rect width="1200" height="420" rx="34" fill="url(#bg)"/>
  <rect width="1200" height="420" rx="34" fill="url(#glowA)"/>
  <rect width="1200" height="420" rx="34" fill="url(#glowB)"/>
  <g opacity="0.16">
    <path d="M0 80H1200M0 160H1200M0 240H1200M0 320H1200M120 0V420M240 0V420M360 0V420M480 0V420M600 0V420M720 0V420M840 0V420M960 0V420M1080 0V420" stroke="#E5E7EB"/>
  </g>
  <g filter="url(#shadow)">
    <rect x="110" y="84" width="980" height="238" rx="28" fill="#020617" fill-opacity="0.58" stroke="#22D3EE" stroke-opacity="0.32"/>
    <text x="600" y="170" text-anchor="middle" fill="#F8FAFC" font-family="Segoe UI, Inter, Arial, sans-serif" font-size="76" font-weight="800" letter-spacing="-3">voyage-craft</text>
    <text x="600" y="226" text-anchor="middle" fill="#A5F3FC" font-family="Segoe UI, Inter, Arial, sans-serif" font-size="25" font-weight="650">unified profile dashboard · repository signals · automation craft</text>
    <rect x="390" y="258" width="420" height="44" rx="22" fill="#0F172A" stroke="#8B5CF6" stroke-opacity="0.5"/>
    <text x="600" y="287" text-anchor="middle" fill="#FBCFE8" font-family="Segoe UI, Inter, Arial, sans-serif" font-size="18" font-weight="700" letter-spacing="2">BUILDING IN PUBLIC</text>
  </g>
  <rect x="160" y="348" width="880" height="3" fill="url(#line)"/>
</svg>
