<svg width="1200" height="260" viewBox="0 0 1200 260" fill="none" xmlns="http://www.w3.org/2000/svg" role="img" aria-labelledby="title desc">
  <title id="title">voyage-craft tech radar</title>
  <desc id="desc">Unified tech radar panel</desc>
  <defs><linearGradient id="bg" x1="0" y1="0" x2="1200" y2="260"><stop stop-color="#020617"/><stop offset="0.55" stop-color="#111827"/><stop offset="1" stop-color="#701A75"/></linearGradient></defs>
  <rect width="1200" height="260" rx="30" fill="url(#bg)"/>
  <rect x="40" y="38" width="1120" height="184" rx="26" fill="#020617" fill-opacity="0.58" stroke="#EC4899" stroke-opacity="0.28"/>
  <text x="600" y="92" text-anchor="middle" fill="#F8FAFC" font-family="Segoe UI, Inter, Arial, sans-serif" font-size="32" font-weight="800">tech radar</text>
  <g font-family="Segoe UI, Inter, Arial, sans-serif" font-size="18" font-weight="800" text-anchor="middle">
    <rect x="112" y="126" width="120" height="44" rx="22" fill="#0F172A" stroke="#22D3EE" stroke-opacity="0.5"/><text x="172" y="154" fill="#A5F3FC">JS</text>
    <rect x="252" y="126" width="120" height="44" rx="22" fill="#0F172A" stroke="#8B5CF6" stroke-opacity="0.5"/><text x="312" y="154" fill="#DDD6FE">TS</text>
    <rect x="392" y="126" width="120" height="44" rx="22" fill="#0F172A" stroke="#22D3EE" stroke-opacity="0.5"/><text x="452" y="154" fill="#A5F3FC">React</text>
    <rect x="532" y="126" width="120" height="44" rx="22" fill="#0F172A" stroke="#22C55E" stroke-opacity="0.5"/><text x="592" y="154" fill="#BBF7D0">Node</text>
    <rect x="672" y="126" width="120" height="44" rx="22" fill="#0F172A" stroke="#F59E0B" stroke-opacity="0.5"/><text x="732" y="154" fill="#FDE68A">Python</text>
    <rect x="812" y="126" width="120" height="44" rx="22" fill="#0F172A" stroke="#EC4899" stroke-opacity="0.5"/><text x="872" y="154" fill="#FBCFE8">Git</text>
    <rect x="952" y="126" width="136" height="44" rx="22" fill="#0F172A" stroke="#8B5CF6" stroke-opacity="0.5"/><text x="1020" y="154" fill="#DDD6FE">GitHub</text>
  </g>
</svg>
